<?xml version="1.0" standalone="no"?>
<!DOCTYPE svg PUBLIC "-//W3C//DTD SVG 1.1//EN" "http://www.w3.org/Graphics/SVG/1.1/DTD/svg11.dtd" >
<svg xmlns="http://www.w3.org/2000/svg">
<metadata>Generated by IcoMoon</metadata>
<defs>
<font id="icomoon" horiz-adv-x="1024">
<font-face units-per-em="1024" ascent="960" descent="-64" />
<missing-glyph horiz-adv-x="1024" />
<glyph unicode="&#x20;" horiz-adv-x="512" d="" />
<glyph unicode="&#xe900;" glyph-name="Chevron-Right" d="M238.327-39.006c30.761-30.763 79.165-33.126 112.64-7.1l8.039 7.1 426.666 426.667c30.763 30.763 33.126 79.164 7.1 112.64l-7.1 8.038-426.666 426.667c-33.324 33.325-87.354 33.325-120.679 0-30.761-30.762-33.128-79.165-7.099-112.641l7.099-8.039 366.26-366.327-366.26-366.327c-30.761-30.763-33.128-79.164-7.099-112.64l7.099-8.038z" />
<glyph unicode="&#xe901;" glyph-name="Chevron-Up" d="M999.006 174.327c30.763 30.763 33.126 79.164 7.1 112.64l-7.1 8.038-426.667 426.667c-30.763 30.761-79.164 33.128-112.64 7.099l-8.038-7.099-426.667-426.667c-33.325-33.323-33.325-87.356 0-120.678 30.762-30.763 79.165-33.126 112.641-7.1l8.039 7.1 366.327 366.259 366.327-366.259c30.763-30.763 79.164-33.126 112.64-7.1l8.038 7.1z" />
<glyph unicode="&#xe902;" glyph-name="clipboard-list-regular-1" d="M768 832h-99.2c-14.801 73-79.398 128-156.8 128s-142-55-156.8-128h-99.2c-70.6 0-128-57.4-128-128v-640c0-70.601 57.4-128 128-128h512c70.601 0 128 57.399 128 128v640c0 70.6-57.399 128-128 128zM288 736v-48c0-26.6 21.4-48 48-48h352c26.598 0 48 21.4 48 48v48h32c17.6 0 32-14.4 32-32v-640c0-17.6-14.4-32-32-32h-512c-17.6 0-32 14.4-32 32v640c0 17.6 14.4 32 32 32h32zM464 800c0 12.73 5.056 24.94 14.059 33.941s21.21 14.059 33.941 14.059c12.732 0 24.939-5.057 33.941-14.059s14.059-21.211 14.059-33.941c0-12.73-5.056-24.94-14.059-33.941s-21.21-14.059-33.941-14.059c-12.732 0-24.939 5.057-33.941 14.059s-14.059 21.211-14.059 33.941zM400 416c0 6.302-1.242 12.544-3.654 18.368s-5.948 11.115-10.405 15.573c-4.457 4.459-9.749 7.991-15.572 10.406-5.824 2.411-12.065 3.652-18.369 3.652s-12.545-1.242-18.369-3.652c-5.824-2.415-11.115-5.948-15.572-10.406s-7.993-9.749-10.405-15.573c-2.412-5.824-3.654-12.066-3.654-18.368s1.242-12.544 3.654-18.368c2.412-5.824 5.948-11.115 10.405-15.573s9.749-7.991 15.572-10.406c5.824-2.411 12.065-3.652 18.369-3.652s12.545 1.242 18.369 3.652c5.824 2.415 11.115 5.948 15.572 10.406s7.993 9.749 10.405 15.573c2.412 5.824 3.654 12.066 3.654 18.368zM480 448c-17.6 0-32-14.4-32-32s14.4-32 32-32h192c17.6 0 32 14.4 32 32s-14.4 32-32 32h-192zM480 256c-17.6 0-32-14.4-32-32s14.4-32 32-32h192c17.6 0 32 14.4 32 32s-14.4 32-32 32h-192zM352 176c12.73 0 24.94 5.056 33.941 14.059s14.059 21.21 14.059 33.941c0 12.732-5.057 24.939-14.059 33.941s-21.211 14.059-33.941 14.059c-12.73 0-24.94-5.056-33.941-14.059s-14.059-21.21-14.059-33.941c0-12.732 5.057-24.939 14.059-33.941s21.211-14.059 33.941-14.059z" />
<glyph unicode="&#xe903;" glyph-name="Close" d="M664.286 448l344.7 344.698c19.934 19.936 19.934 52.287 0 72.255l-80.098 80.095c-19.934 19.936-52.284 19.936-72.252 0l-344.67-344.731-344.696 344.699c-19.936 19.936-52.287 19.936-72.255 0l-80.063-80.063c-19.936-19.936-19.936-52.287 0-72.255l344.699-344.698-344.699-344.7c-19.936-19.934-19.936-52.288 0-72.252l80.095-80.098c19.936-19.934 52.287-19.934 72.255 0l344.664 344.734 344.7-344.7c19.938-19.938 52.288-19.938 72.256 0l80.094 80.094c19.938 19.934 19.938 52.288 0 72.256l-344.73 344.666z" />
<glyph unicode="&#xe904;" glyph-name="Comment" d="M512.068 874.667c282.761 0 511.932-186.176 511.932-415.945 0-229.773-229.171-415.949-511.932-415.949-65.591 0-127.985 10.398-185.778 28.599-58.192-41.195-155.18-92.591-278.164-92.591-19.197 0-36.595 11.401-44.194 28.996-7.599 17.6-3.999 37.995 9.199 51.994 1 0.802 62.992 67.593 92.788 146.381-65.992 70.191-105.786 157.38-105.786 252.57 0 229.769 229.17 415.945 511.936 415.945zM288.093 602.701h447.941c17.6 0 31.996-14.398 31.996-31.996v-31.996c0-17.596-14.396-31.996-31.996-31.996h-447.941c-17.597 0-31.996 14.4-31.996 31.996v31.996c0 17.598 14.398 31.996 31.996 31.996zM288.093 410.726h255.967c17.596 0 31.996-14.4 31.996-31.996v-31.996c0-17.6-14.4-31.996-31.996-31.996h-255.967c-17.597 0-31.996 14.396-31.996 31.996v31.996c0 17.596 14.398 31.996 31.996 31.996zM355.284 162.961c50.593-16 103.386-24.196 156.78-24.196 229.372 0 415.945 143.582 415.945 319.957 0 176.377-186.573 319.959-415.945 319.959-229.37 0-415.946-143.581-415.946-319.959 0-84.39 43.394-148.181 79.59-186.778l41.195-43.593-21.197-56.192c-10.999-28.996-25.197-56.192-39.795-80.393 47.194 15.202 86.389 37.798 114.985 57.993l38.995 27.597 45.394-14.396z" />
<glyph unicode="&#xe905;" glyph-name="comment-regular-1" d="M247.199 177.399c25.8 18.799 59.2 23.599 89.2 12.8 53-19.2 112.399-30.199 175.601-30.199 249.399 0 416 160.998 416 320 0 159-166.601 320-416 320-249.401 0-416.001-161-416.001-320 0-64 24.8-125.602 71.4-178.402 17.2-19.396 25.6-44.996 23.6-70.997-2.8-36.203-11.4-69.402-22.6-98.799 34 15.799 62.2 33.399 78.8 45.397v0.201zM42.399 96.201c3.6 5.402 7 10.799 10.2 16.201 20 33.199 39 76.8 42.8 125.798-60 68.203-95.4 151.599-95.4 241.801 0 229.8 229.2 416 512.001 416 282.799 0 512-186.2 512-416 0-229.798-229.201-416-512-416-74.202 0-144.601 12.8-208.201 35.802-23.8-17.404-62.6-41.203-108.6-61.201-30.2-13.201-64.6-25.199-100.2-32.201-1.6-0.401-3.2-0.602-4.8-0.998-8.8-1.6-17.4-3.004-26.4-3.802-0.4 0-1-0.201-1.4-0.201-10.2-0.998-20.4-1.6-30.6-1.6-13 0-24.6 7.799-29.6 19.802-5 11.998-2.2 25.6 6.8 34.799 8.2 8.401 15.6 17.399 22.6 26.999 3.4 4.599 6.6 9.199 9.6 13.803 0.2 0.397 0.4 0.597 0.6 0.998h0.6z" />
<glyph unicode="&#xe906;" glyph-name="Date" d="M789.333 832h96c53.001 0 96-43 96-96v-704c0-53.001-42.999-96-96-96h-704c-53 0-96 42.999-96 96v704c0 53 43 96 96 96h96v104c0 13.2 10.8 24 24 24h80c13.2 0 24-10.8 24-24v-104h256v104c0 13.2 10.799 24 24 24h80c13.201 0 24-10.8 24-24v-104zM193.33 32h680.001c6.601 0 11.998 5.402 11.998 11.998v596.002h-703.999v-596.002c0-6.596 5.4-11.998 12-11.998z" />
<glyph unicode="&#xe907;" glyph-name="Dropship" d="M1022.541 366.421l-9.067 27.021c-4.979 14.933-21.154 22.933-35.908 17.954l-33.6-11.379-127.817 383.454c-6.046 17.955-18.667 32.532-35.733 41.065-16.887 8.355-36.267 9.777-54.221 3.911l-394.474-131.551-50.842 152.35c-13.511 40.71-51.554 68.087-94.219 68.087h-158.216c-15.644 0-28.443-12.8-28.443-28.443v-28.444c0-15.644 12.8-28.443 28.443-28.443h158.039c6.044 0 11.555-3.911 13.51-9.777l166.394-499.183c-49.065-30.042-82.13-83.55-82.13-145.237 0-94.221 76.442-170.662 170.66-170.662 94.221 0 170.662 76.442 170.662 170.662 0 8.538-1.199 16.567-2.415 24.751l-0.077 0.491 381.321 127.287c14.933 4.975 23.113 21.154 18.133 36.087zM455.095 92.476c-47.111 0-85.332 38.221-85.332 85.329s38.221 85.329 85.332 85.329c47.108 0 85.329-38.221 85.329-85.329s-38.221-85.329-85.329-85.329zM455.095 348.467c54.929 0 103.108-26.313 134.396-66.667l273.587 91.021-123.371 369.941-146.308-48.71 35.379-106.129c4.975-14.755-3.025-30.932-17.954-35.91l-27.025-9.067c-14.754-4.977-30.929 3.022-35.908 17.955l-35.375 106.129-153.773-51.198 89.419-268.079c0.926 0.073 1.847 0.201 2.773 0.329 1.387 0.192 2.773 0.384 4.16 0.384z" />
<glyph unicode="&#xe908;" glyph-name="Filter" d="M96.114 960h831.792c85.444 0 128.179-103.584 67.878-163.882l-323.785-323.883v-441.566c0-79.876-91.055-120.512-153.6-76.8l-128 94.131c-24.174 21.329-38.4 49.783-38.4 80v344.235l-323.768 323.883c-60.42 60.42-17.394 163.882 67.882 163.882zM576 32v480l352 352h-832l352-352v-384l128-96z" />
<glyph unicode="&#xe909;" glyph-name="Gear" d="M967.676 525.175l-65.741-37.952c2.522-26.116 2.522-52.335 0-78.451l65.741-37.948c19.46-11.234 28.898-34.155 23.074-55.855-23.543-87.808-69.867-166.293-132.245-228.745-15.855-15.872-40.414-19.085-59.84-7.868l-65.621 37.901c-21.316-15.253-44.066-28.403-67.921-39.262v-75.878c0-22.473-15.121-42.133-36.838-47.91-86.323-22.959-177.899-22.929-264.115 0.004-21.717 5.777-36.833 25.434-36.835 47.906v75.878c-23.857 10.859-46.604 24.009-67.921 39.266l-65.62-37.901c-19.427-11.221-43.985-8.004-59.84 7.868-62.382 62.451-108.705 140.937-132.249 228.74-5.82 21.705 3.615 44.621 23.075 55.855l65.74 37.952c-2.519 26.086-2.519 52.356 0 78.447l-65.74 37.952c-19.46 11.234-28.895 34.152-23.075 55.854 23.544 87.808 69.867 166.291 132.249 228.742 15.855 15.872 40.413 19.089 59.84 7.868l65.62-37.9c21.317 15.255 44.064 28.406 67.921 39.267v75.877c0 22.472 15.123 42.133 36.839 47.909 86.323 22.957 177.899 22.929 264.115-0.002 21.717-5.777 36.83-25.437 36.834-47.909v-75.877c23.855-10.861 46.605-24.012 67.921-39.267l65.621 37.9c19.426 11.22 43.985 8.004 59.84-7.868 62.379-62.452 108.702-140.936 132.245-228.742 5.824-21.702-3.614-44.62-23.074-55.852zM883.648 304.909l-90.466 52.207c15.761 85.303 15.753 96.491 0 181.756l90.466 52.209c-16.273 43.95-39.906 84.811-69.884 120.834l-90.487-52.251c-66.005 56.541-75.691 62.099-157.248 90.899v104.463c-46.199 7.887-93.402 7.887-139.599 0v-104.461c-81.565-28.802-91.219-34.337-157.251-90.898l-90.486 52.251c-30.016-36.088-53.675-77.007-69.882-120.834l90.465-52.21c-15.76-85.305-15.752-96.492 0-181.757l-90.465-52.207c16.273-43.951 39.904-84.809 69.882-120.832l90.486 52.25c66.007-56.542 75.694-62.097 157.251-90.897v-104.465c46.197-7.885 93.399-7.885 139.599 0v104.465c81.566 28.804 91.217 34.334 157.248 90.897l90.487-52.25c29.978 36.023 53.611 76.881 69.884 120.832zM496.226 646.19c-109.283 0-198.192-88.908-198.192-198.194s88.909-198.195 198.192-198.195c109.286 0 198.195 88.909 198.195 198.195s-88.909 198.194-198.195 198.194zM397.128 448c0-54.643 44.451-99.098 99.098-99.098 54.643 0 99.093 44.454 99.093 99.098 0 54.639-44.45 99.096-99.093 99.096-54.647 0-99.098-44.457-99.098-99.096z" />
<glyph unicode="&#xe90a;" glyph-name="Group" d="M608 874.667h384c17.673 0 32-14.327 32-32v-32c0-17.673-14.327-32-32-32h-384c-17.673 0-32 14.327-32 32v32c0 17.673 14.327 32 32 32zM992 618.667h-384c-17.673 0-32-14.327-32-32v-32c0-17.673 14.327-32 32-32h384c17.673 0 32 14.327 32 32v32c0 17.673-14.327 32-32 32zM608 362.667h384c17.673 0 32-14.327 32-32v-32c0-17.673-14.327-32-32-32h-384c-17.673 0-32 14.327-32 32v32c0 17.673 14.327 32 32 32zM608 106.667h384c17.673 0 32-14.327 32-32v-32c0-17.673-14.327-32-32-32h-384c-17.673 0-32 14.327-32 32v32c0 17.673 14.327 32 32 32zM416 362.667h-384c-17.673 0-32-14.327-32-32v-32c0-17.673 14.327-32 32-32h384c17.673 0 32 14.327 32 32v32c0 17.673-14.327 32-32 32zM32 106.667h384c17.673 0 32-14.327 32-32v-32c0-17.673-14.327-32-32-32h-384c-17.673 0-32 14.327-32 32v32c0 17.673 14.327 32 32 32zM416 874.667h-384c-17.673 0-32-14.327-32-32v-32c0-17.673 14.327-32 32-32h384c17.673 0 32 14.327 32 32v32c0 17.673-14.327 32-32 32zM32 618.667h384c17.673 0 32-14.327 32-32v-32c0-17.673-14.327-32-32-32h-384c-17.673 0-32 14.327-32 32v32c0 17.673 14.327 32 32 32z" />
<glyph unicode="&#xe90b;" glyph-name="HHT" d="M729.626 874.667c-7.040 0-12.8-5.76-12.8-12.799v-25.598c0-7.039 5.76-12.799 12.8-12.799h281.574c7.040 0 12.796 5.76 12.796 12.799v25.598c0 7.039-5.756 12.799-12.796 12.799h-281.574zM729.626 772.276c-7.040 0-12.8-5.76-12.8-12.799v-76.793c0-7.040 5.76-12.799 12.8-12.799h281.574c7.040 0 12.796 5.759 12.796 12.799v76.793c0 7.039-5.756 12.799-12.796 12.799h-281.574zM1011.2 618.691c7.040 0 12.796-5.76 12.796-12.799v-76.791c0-7.040-5.756-12.8-12.796-12.8h-281.574c-7.040 0-12.8 5.76-12.8 12.8v76.791c0 7.039 5.76 12.799 12.8 12.799h281.574zM729.626 311.518c-7.040 0-12.8-5.76-12.8-12.796v-25.6c0-7.040 5.76-12.8 12.8-12.8h281.574c7.040 0 12.796 5.76 12.796 12.8v25.6c0 7.036-5.756 12.796-12.796 12.796h-281.574zM1011.2 413.909c7.040 0 12.796-5.76 12.796-12.8v-25.596c0-7.040-5.756-12.8-12.796-12.8h-281.574c-7.040 0-12.8 5.76-12.8 12.8v25.596c0 7.040 5.76 12.8 12.8 12.8h281.574zM179.279 772.276c-99.031 0-179.183-80.152-179.183-179.183 0-80.474 53.275-147.665 126.228-170.385l-115.989-200.781c-21.278-36.796-8.639-83.669 28.157-104.947l88.632-51.196c12.159-7.040 25.277-10.24 38.396-10.24 26.557 0 52.315 13.76 66.554 38.396l95.991 166.383h107.19c42.398 0 76.791 34.398 76.791 76.796v76.791h76.796c14.076 0 25.596 11.52 25.596 25.6v307.169c0 14.079-11.52 25.597-25.596 25.597h-409.563zM165.521 132.335l-88.632 51.196 132.948 230.379h118.229l-162.545-281.574zM435.251 311.518h-77.591l59.034 102.391h44.157v-76.791c0-14.080-11.52-25.6-25.6-25.6zM537.647 490.705h-358.368c-56.475 0-102.391 45.914-102.391 102.389s45.916 102.391 102.391 102.391h358.368v-204.78zM729.626 157.935c-7.040 0-12.8-5.76-12.8-12.8v-76.791c0-7.040 5.76-12.8 12.8-12.8h281.574c7.040 0 12.796 5.76 12.796 12.8v76.791c0 7.040-5.756 12.8-12.796 12.8h-281.574z" />
<glyph unicode="&#xe90c;" glyph-name="History" d="M499.132-64c282.095 0.196 512.149 230.869 511.629 512.964-0.521 282.327-229.551 511.036-512 511.036-142.14 0-270.726-57.945-363.487-151.48l-93.104 91.817c-15.655 15.441-42.17 4.35-42.17-17.639v-261.279c0-13.681 11.093-24.774 24.774-24.774h264.939c22.154 0 33.171 26.857 17.396 42.414l-101.349 99.949c74.767 75.291 178.38 121.895 293.001 121.895 228.198 0 412.907-184.673 412.907-412.903 0-228.194-184.674-412.902-412.907-412.902-105.603 0-201.891 39.548-274.876 104.666-9.866 8.802-24.828 8.533-34.178-0.815l-35.014-35.017c-10.028-10.027-9.609-26.415 0.914-35.921 90.882-82.125 211.365-132.105 343.525-132.011zM695.010 302.874l-29.141-40.068c-8.047-11.068-23.543-13.513-34.607-5.466l-182.046 132.395v347.299c0 13.681 11.093 24.774 24.772 24.774h49.549c13.683 0 24.772-11.093 24.772-24.774v-296.832l141.239-102.72c11.063-8.047 13.513-23.539 5.461-34.607z" />
<glyph unicode="&#xe90d;" glyph-name="Home" d="M575.727 894.188l437.995-360.391c5.824-4.841 9.476-11.799 10.163-19.343 0.683-7.543-1.664-15.049-6.515-20.86l-18.24-21.897c-10.082-12.058-28.011-13.649-40.055-3.563l-48.892 40.218v-474.103c0-15.735-12.732-28.489-28.442-28.489h-739.941c-15.727 0.030-28.496 12.736-28.623 28.489v370.325h0.551v103.778l-48.836-40.145c-12.044-10.086-29.972-8.495-40.054 3.558l-18.205 21.901c-4.843 5.794-7.189 13.278-6.522 20.804 0.667 7.522 4.292 14.477 10.078 19.326l437.982 360.391c36.932 30.861 90.62 30.861 127.556 0zM824.478 518.519h0.375v60.054l-312.896 257.484-312.892-257.412v-7.121l-0.551-0.445v-479.857h199.665v256.38c0 31.467 25.47 56.973 56.891 56.973h113.779c31.42 0 56.887-25.506 56.887-56.973v-256.38h198.741v427.298z" />
<glyph unicode="&#xe90e;" glyph-name="ID-key-pad" d="M170.667 960c-23.564 0-42.667-19.103-42.667-42.667v-130.246c0-23.564 19.103-42.667 42.667-42.667h130.246c23.564 0 42.667 19.102 42.667 42.667v130.246c0 23.564-19.102 42.667-42.667 42.667h-130.246zM440.141 960c-23.565 0-42.667-19.103-42.667-42.667v-130.246c0-23.564 19.103-42.667 42.667-42.667h130.244c23.565 0 42.667 19.102 42.667 42.667v130.246c0 23.564-19.102 42.667-42.667 42.667h-130.244zM666.948 917.333c0 23.564 19.102 42.667 42.667 42.667h130.244c23.565 0 42.667-19.103 42.667-42.667v-130.246c0-23.564-19.102-42.667-42.667-42.667h-130.244c-23.565 0-42.667 19.102-42.667 42.667v130.246zM170.667 690.526c-23.564 0-42.667-19.103-42.667-42.667v-130.245c0-23.565 19.103-42.667 42.667-42.667h130.246c23.564 0 42.667 19.102 42.667 42.667v130.245c0 23.564-19.102 42.667-42.667 42.667h-130.246zM397.474 647.86c0 23.564 19.102 42.667 42.667 42.667h130.244c23.565 0 42.667-19.102 42.667-42.667v-130.245c0-23.565-19.102-42.667-42.667-42.667h-130.244c-23.564 0-42.667 19.102-42.667 42.667v130.245zM709.615 690.526c-23.565 0-42.667-19.103-42.667-42.667v-130.245c0-23.565 19.102-42.667 42.667-42.667h130.244c23.565 0 42.667 19.102 42.667 42.667v130.245c0 23.564-19.102 42.667-42.667 42.667h-130.244zM128 378.385c0 23.565 19.103 42.667 42.667 42.667h130.246c23.564 0 42.667-19.102 42.667-42.667v-130.244c0-23.565-19.102-42.667-42.667-42.667h-130.246c-23.564 0-42.667 19.102-42.667 42.667v130.244zM440.141 421.052c-23.565 0-42.667-19.102-42.667-42.667v-130.244c0-23.565 19.103-42.667 42.667-42.667h130.244c23.565 0 42.667 19.102 42.667 42.667v130.244c0 23.565-19.102 42.667-42.667 42.667h-130.244zM666.948 378.385c0 23.565 19.102 42.667 42.667 42.667h130.244c23.565 0 42.667-19.102 42.667-42.667v-130.244c0-23.565-19.102-42.667-42.667-42.667h-130.244c-23.565 0-42.667 19.102-42.667 42.667v130.244zM440.141 151.578c-23.565 0-42.667-19.102-42.667-42.667v-130.244c0-23.565 19.103-42.667 42.667-42.667h130.244c23.565 0 42.667 19.102 42.667 42.667v130.244c0 23.565-19.102 42.667-42.667 42.667h-130.244z" />
<glyph unicode="&#xe90f;" glyph-name="ID-numbers" d="M865.545 630.854v292.574c0 20.198-16.371 36.572-36.57 36.572h-82.287c-12.612 0.002-24.333-6.494-31.019-17.189l-45.713-73.143c-7.049-11.275-7.42-25.486-0.973-37.114s18.692-18.842 31.991-18.841h54.857v-182.859h-54.857c-20.198 0-36.574-16.374-36.574-36.572v-36.572c0-20.198 16.375-36.572 36.574-36.572h219.43c20.198 0 36.57 16.374 36.57 36.572v36.572c0 20.198-16.371 36.572-36.57 36.572h-54.861zM627.831 283.422c0 90.893 73.681 164.574 164.574 164.574 90.846-0.098 164.471-73.724 164.57-164.574v-103.727c-0.162-119.782-86.148-222.229-204.092-243.153-10.65-1.83-21.568 1.143-29.815 8.124-8.252 6.98-12.992 17.25-12.949 28.058v38.332c-0.077 17.135 11.861 31.974 28.617 35.567 43.063 9.050 79.1 38.357 96.734 78.673-14.003-4.070-28.489-6.238-43.063-6.443-90.893 0-164.574 73.681-164.574 164.57zM792.401 228.565c-30.298 0-54.857 24.559-54.857 54.857s24.559 54.857 54.857 54.857c30.298 0 54.857-24.559 54.857-54.857s-24.559-54.857-54.857-54.857zM280.398 155.422h100.572c10.946-0.013 20.837-6.532 25.164-16.589 4.327-10.052 2.261-21.717-5.255-29.675l-155.43-164.574c-5.181-5.478-12.39-8.585-19.932-8.585s-14.751 3.106-19.932 8.585l-155.43 164.574c-7.522 7.962-9.584 19.639-5.246 29.696 4.339 10.061 14.246 16.572 25.201 16.567h100.572v768.006c0 20.198 16.374 36.572 36.572 36.572h36.572c20.198 0 36.572-16.374 36.572-36.572v-768.006z" />
<glyph unicode="&#xe910;" d="M1024 704c0 28.277-22.925 51.2-51.2 51.2h-921.6c-28.277 0-51.2-22.923-51.2-51.2v-716.8c0-28.275 22.923-51.2 51.2-51.2h921.6c28.275 0 51.2 22.925 51.2 51.2v716.8zM51.2 704h921.6v-716.8h-921.6v716.8z" />
<glyph unicode="&#xe911;" d="M401.062 960h221.867c23.564 0 42.667-19.103 42.667-42.667v-273.067c0-23.564-19.103-42.667-42.667-42.667h-221.867c-23.564 0-42.667 19.103-42.667 42.667v273.067c0 23.564 19.103 42.667 42.667 42.667z" />
<glyph unicode="&#xe912;" d="M665.596 908.8c0 28.277-22.925 51.2-51.2 51.2h-204.8c-28.277 0-51.2-22.923-51.2-51.2v-256c0-28.277 22.923-51.2 51.2-51.2h204.8c28.275 0 51.2 22.923 51.2 51.2v256zM409.6 908.8h204.8v-256h-204.8v256z" />
<glyph unicode="&#xe913;" d="M563.2 806.399c0-28.277-22.923-51.2-51.2-51.2s-51.2 22.923-51.2 51.2c0 28.277 22.923 51.2 51.2 51.2s51.2-22.923 51.2-51.2z" />
<glyph unicode="&#xe914;" d="M281.6 652.8h460.8c14.138 0 25.6-11.462 25.6-25.6s-11.462-25.6-25.6-25.6h-460.8c-14.138 0-25.6 11.462-25.6 25.6s11.462 25.6 25.6 25.6z" />
<glyph unicode="&#xe915;" d="M453.568 183.223l-12.045-93.623h-67.464l12.047 93.623h-78.908v63.782h86.739l12.649 94.793h-78.908v63.778h86.739l12.047 93.623h67.462l-12.045-93.623h88.546l12.045 93.623h67.465l-12.049-93.623h78.306l0.606-63.778h-86.741l-12.045-94.793h78.306v-63.782h-86.14l-12.045-93.623h-68.066l12.045 93.623h-88.546zM461.402 247.006h88.546l12.646 94.793h-88.546l-12.646-94.793z" />
<glyph unicode="&#xe916;" glyph-name="ID-thumbprint" d="M721.425 874.667c-2.372 0-4.791 0.384-7.164 1.152-7.138 2.366-13.99 4.815-20.766 7.236l-4.949 1.767c-46.289 16.725-90.027 32.512-208.887 32.512-105.54 0-129.321-11.819-162.113-28.16l-0.586-0.291c-7.916-3.926-16.317-8.092-26.14-12.339-11.033-4.864-24.089 0-29.056 10.709-4.967 10.752 0 23.381 11.033 28.203 9.010 3.937 16.692 7.754 23.974 11.372l0.691 0.343c36.901 18.335 66.071 32.829 182.196 32.829 126.746 0 176.29-17.869 224.196-35.145l0.030-0.012 3.622-1.301c6.891-2.477 13.828-4.971 21.082-7.403 11.473-3.84 17.587-15.957 13.628-27.093-3.162-8.832-11.691-14.379-20.791-14.379zM790.528 714.284c4.13-6.656 11.383-10.283 18.812-10.283 3.913 0 7.825 0.981 11.388 3.072 10.372 6.144 13.713 19.243 7.386 29.312-30.157 48.256-163.302 138.283-348.45 138.283-196.887 0-302.429-99.797-326.473-138.283-6.33-10.069-2.989-23.168 7.385-29.269s23.913-2.944 30.155 7.168c19.121 30.549 113.19 117.717 288.934 117.717 168.969 0 289.195-83.072 310.865-117.717zM128 426.667c0-11.776 9.847-21.333 21.979-21.333s21.978 9.557 21.978 21.333c0 176.468 147.873 319.999 329.679 319.999 178.317 0 240.785-97.855 290.982-176.486l0.017-0.026 0.038-0.060c29.525-46.266 55.014-86.22 97.809-99.694 11.652-3.712 24.004 2.517 27.695 13.696 3.78 11.221-2.551 23.253-14.11 26.88-27.418 8.64-48.964 42.353-73.911 81.373l-0.158 0.247c-52.966 83.029-125.542 196.736-328.363 196.736-206.027 0-373.636-162.688-373.636-362.666zM167.691 145.451c-9.363 0-18.067 5.845-20.968 14.976-3.648 11.264 2.813 23.211 14.418 26.709 24.572 7.467 101.937 41.216 65.892 162.859-21.056 71.211-12.352 146.133 24.616 210.901 36.968 64.853 97.717 111.829 171.126 132.309 147.874 40.875 304.405-40.619 351.001-182.101 10.944-9.984 85.978-70.144 137.323-110.592 9.404-7.424 10.854-20.864 3.209-29.995-7.607-9.173-21.495-10.581-30.903-3.115-141.111 111.151-146.010 119.014-148.301 122.692l-0.013 0.017c-0.922 1.493-1.626 3.072-2.15 4.693-38.114 121.728-171.874 192.298-298.078 157.354-62.067-17.28-113.497-57.045-144.794-111.872-31.254-54.826-38.639-118.228-20.836-178.474 37.452-126.336-27.781-194.987-95.036-215.381-2.11-0.64-4.308-0.981-6.506-0.981zM726.434 37.461c-4.745 0-9.583 1.493-13.623 4.608-132.531 101.803-277.239 221.611-316.803 355.115-16.748 56.533 17.011 115.712 75.254 132.011 58.244 16.17 119.258-16.555 136.004-73.045 23.386-78.891 182.161-200.875 241.941-246.784 9.54-7.296 11.123-20.736 3.605-29.952-7.518-9.259-21.274-10.837-30.857-3.499-113.545 87.211-232.887 187.349-256.93 268.459-10.069 33.92-46.729 53.504-81.63 43.819-34.901-9.771-55.168-45.312-45.146-79.189 35.959-121.344 174.643-235.733 301.811-333.44 9.54-7.296 11.123-20.736 3.605-29.952-4.309-5.376-10.726-8.149-17.233-8.149zM216.928 78.976c2.945-9.131 11.604-14.976 20.968-14.976 2.154 0 4.396 0.299 6.505 0.896 127.257 38.571 154.906 119.083 109.674 319.104-19.034 84.096 26.111 164.096 104.972 186.112 81.715 22.699 166.993-23.211 190.421-102.229 8.572-29.013 32.047-68.992 212.139-207.317 9.583-7.381 23.343-5.717 30.861 3.499 7.514 9.259 5.931 22.699-3.605 29.995-163.127 125.355-191.040 165.077-197.15 185.685-30.11 101.632-140.006 160.555-244.753 131.456-101.456-28.331-159.831-129.877-135.786-236.288 44.397-196.181 11.253-241.579-79.827-269.227-11.605-3.499-18.066-15.488-14.418-26.709zM787.358 106.667c-5.623 0-11.251 2.091-15.561 6.229-8.013 7.778-25.574 20.719-45.914 35.703l-0.239 0.179-0.098 0.068c-78.737 57.993-210.428 154.987-245.052 271.932-3.341 11.349 3.383 23.125 15.031 26.411 11.823 3.243 23.825-3.285 27.209-14.592 30.579-103.279 154.935-194.88 229.329-249.677v0l0.128-0.094 0.009-0.004c22.635-16.683 40.525-29.862 50.675-39.718 8.572-8.32 8.572-21.845 0-30.165-4.262-4.181-9.89-6.272-15.518-6.272zM456.273-63.957c0.482-0.043 0.922-0.043 1.408-0.043 11.516 0 21.188 8.704 21.935 20.011 2.812 44.117 20.177 107.989 44.002 107.989 32.614 0 55.693-30.464 74.244-54.997 7.381-9.685 14.020-18.219 20.087-24.107 8.572-8.32 22.507-8.32 31.078 0s8.572 21.845 0 30.165c-4.279 4.194-8.806 10.155-13.892 16.853v0l-1.847 2.432v0.004c-21.845 28.8-54.857 72.316-109.67 72.316-74.556 0-86.289-123.307-87.915-148.011-0.751-11.776 8.482-21.888 20.57-22.613zM325.81-21.333c-9.275 0-17.891 5.717-20.924 14.763-3.736 11.221 2.593 23.211 14.11 26.88 55.562 17.536 92.53 129.493 73.76 186.539-3.692 11.221 2.682 23.211 14.242 26.795 11.561 3.755 23.913-2.603 27.604-13.824 23.343-70.869-17.449-213.461-102.067-240.128-2.198-0.683-4.484-1.024-6.726-1.024zM171.957 256c-8.088 0-15.825 4.309-19.693 11.776-4.044 7.893-24.265 48.469-24.265 73.557 0 11.776 9.847 21.333 21.979 21.333s21.978-9.557 21.978-21.333c0-11.136 11.737-39.083 19.649-54.443 5.451-10.539 1.011-23.339-9.846-28.629-3.121-1.536-6.462-2.261-9.803-2.261zM876.331 590.848c2.991-9.088 11.605-14.848 20.924-14.848 2.197 0 4.442 0.341 6.682 1.024 11.563 3.584 17.933 15.573 14.242 26.795-11.648 35.413-44.749 87.808-46.157 90.027-6.374 10.069-19.913 13.227-30.242 6.997-10.33-6.187-13.581-19.328-7.206-29.355 0.35-0.469 31.693-50.219 41.758-80.64z" />
<glyph unicode="&#xe917;" glyph-name="Number-hash" d="M1023.565 653.465l-9.796-54.857c-2.334-13.082-13.713-22.608-26.999-22.608h-213.329l-45.713-256h203.529c17.079 0 30.003-15.437 27.004-32.247l-9.796-54.857c-2.338-13.082-13.713-22.609-27.004-22.609h-213.325l-44.945-251.678c-2.338-13.082-13.713-22.609-27.004-22.609h-55.723c-17.079 0-30.003 15.437-27.004 32.252l43.221 242.035h-254.262l-44.942-251.678c-2.336-13.082-13.713-22.609-27.001-22.609h-55.726c-17.079 0-30.004 15.437-27.003 32.252l43.22 242.035h-203.531c-17.077 0-30.002 15.437-27.001 32.247l9.797 54.857c2.335 13.082 13.713 22.609 27.001 22.609h213.328l45.714 256h-203.531c-17.079 0-30.005 15.438-27.004 32.249l9.797 54.857c2.336 13.082 13.713 22.608 27.001 22.608h213.33l44.944 251.68c2.336 13.081 13.713 22.606 27.001 22.606h55.724c17.079 0 30.003-15.44 27.004-32.251l-43.221-242.034h254.263l44.941 251.68c2.338 13.081 13.713 22.606 27.004 22.606h55.727c17.075 0 29.999-15.44 26.999-32.251l-43.221-242.034h203.533c17.075 0 30.003-15.438 26.999-32.249zM362.014 320h254.263l45.713 256h-254.262l-45.714-256z" />
<glyph unicode="&#xe918;" d="M627.81 911.238c0 26.931-21.833 48.762-48.764 48.762h-97.523c-26.931 0-48.764-21.831-48.764-48.762v-926.474c0-26.931 21.833-48.764 48.764-48.764h97.523c26.931 0 48.764 21.833 48.764 48.764v926.474zM481.523 911.238h97.523v-926.474h-97.523v926.474z" />
<glyph unicode="&#xe919;" d="M115.808-15.241h828.951c13.465 0 24.381-10.916 24.381-24.381v0c0-13.465-10.916-24.381-24.381-24.381h-828.951c-13.465 0-24.381 10.916-24.381 24.381v0c0 13.465 10.916 24.381 24.381 24.381z" />
<glyph unicode="&#xe91a;" d="M128 813.713h804.57c47.128 0 85.333-38.205 85.333-85.333v-316.954c0-47.128-38.205-85.333-85.333-85.333h-804.57c-47.128 0-85.333 38.205-85.333 85.333v316.954c0 47.128 38.205 85.333 85.333 85.333z" />
<glyph unicode="&#xe91b;" d="M1017.903 716.19c0 53.861-43.661 97.524-97.523 97.524h-780.189c-53.861 0-97.524-43.663-97.524-97.524v-292.57c0-53.862 43.663-97.527 97.524-97.527h780.189c53.862 0 97.523 43.665 97.523 97.527v292.57zM140.19 740.571l784.571-0.393c11.375-2.065 20.002-12.019 20.002-23.988v-292.57l-0.393-4.382c-2.065-11.375-12.019-20.002-23.991-20.002l-784.572 0.393c-11.374 2.065-19.998 12.019-19.998 23.991v292.57l0.393 4.383c2.065 11.374 12.019 19.998 23.988 19.998z" />
<glyph unicode="&#xe91c;" glyph-name="Number-store" d="M915.785 687.111c10.313-16.356 11.379-36.445 4.087-53.511-6.933-16.355-19.733-26.311-35.733-28.445-3.554-0.533-6.933-0.711-10.308-0.711-20.8 0-39.467 9.067-52.8 23.467-16.179 17.777-39.113 27.911-63.292 27.911-24.175 0-47.108-10.311-63.108-28.089-12.979-14.4-31.467-23.467-52.625-23.467-20.975 0-39.642 9.067-52.621 23.467-16.179 17.955-39.113 28.089-63.287 28.089-24.179 0-47.113-10.133-63.292-28.089-12.975-14.4-31.467-23.467-52.62-23.467-20.978 0-39.645 9.067-52.622 23.467-16.178 17.955-39.111 28.089-63.289 28.089s-47.111-10.133-63.289-28.089c-12.978-14.222-31.467-23.289-52.445-23.289-3.2 0-6.755 0.177-10.311 0.711-15.823 2.133-28.445 12.089-35.378 28.445-7.289 17.067-6.222 37.155 4.089 53.511l91.378 144.889h595.912l91.554-144.889zM873.83 519.113c7.287 0 14.4 0.533 21.333 1.421 98.667 13.155 145.421 128.889 92.621 212.267l-101.867 161.245c-9.067 14.4-25.246 23.289-42.487 23.289h-634.312c-17.245 0-33.422-8.889-42.489-23.289l-102.045-161.245c-52.622-83.2-6.045-198.933 92.267-212.267 7.111-0.887 14.4-1.421 21.511-1.421 34.844 0 66.667 11.375 92.267 30.221 8.533 6.222 16.355 13.511 23.467 21.155 7.111-7.822 14.933-14.933 23.467-21.155 25.777-18.846 57.6-30.221 92.444-30.221s66.665 11.375 92.444 30.221c8.533 6.222 16.354 13.511 23.467 21.333 7.113-7.822 14.933-14.933 23.467-21.155 25.779-18.845 57.6-30.224 92.446-30.224 35.2 0 67.2 11.558 92.975 30.757 8.358 6.222 16 13.155 22.933 20.8 6.933-7.645 14.758-14.756 23.113-20.978 25.779-19.021 57.779-30.579 92.8-30.579l0.179-0.175zM213.385 320v145.067c-11.378-1.954-22.933-2.846-34.845-2.846-9.777 0-19.555 0.713-28.977 1.958h-0.178c-7.289 1.067-14.4 2.308-21.333 4.087v-347.379c0-62.754 51.022-113.775 113.778-113.775h568.888c62.754 0 113.779 51.021 113.779 113.775v347.379c-7.113-1.779-14.225-3.2-21.867-4.087h-0.179c-9.421-1.246-19.021-1.958-28.8-1.958-11.733 0-23.287 0.892-34.487 2.846v-145.067h-625.779zM839.164 234.667v-113.779c0-15.642-12.8-28.442-28.446-28.442h-568.888c-15.645 0-28.445 12.8-28.445 28.442v113.779h625.779z" />
<glyph unicode="&#xe91d;" glyph-name="POS" d="M1022.801 200.998l-50.999 356.602c-6.801 47.2-47.202 82.4-95.002 82.4h-460.8v64h192c17.6 0 32 14.4 32 32v192c0 17.6-14.4 32-32 32h-512c-17.6 0-32-14.4-32-32v-192c0-17.6 14.4-32 32-32h192v-64h-140.8c-47.8 0-88.2-35.2-95-82.4l-51-356.602c-0.8-5.999-1.2-11.998-1.2-18.197v-150.801c0-53.001 43-96 96-96h832c53.001 0 96 42.999 96 96v151.002c0 5.999-0.401 11.998-1.199 17.997zM272 464c0 17.6-14.4 32-32 32h-32c-17.6 0-32-14.4-32-32v-32c0-17.6 14.4-32 32-32h32c17.6 0 32 14.4 32 32v32zM336 368h-32c-17.6 0-32-14.4-32-32v-32c0-17.6 14.4-32 32-32h32c17.6 0 32 14.4 32 32v32c0 17.6-14.4 32-32 32zM432 496c17.6 0 32-14.4 32-32v-32c0-17.6-14.4-32-32-32h-32c-17.6 0-32 14.4-32 32v32c0 17.6 14.4 32 32 32h32zM720 368h-32c-17.6 0-32-14.4-32-32v-32c0-17.6 14.4-32 32-32h32c17.6 0 32 14.4 32 32v32c0 17.6-14.4 32-32 32zM784 496h32c17.6 0 32-14.4 32-32v-32c0-17.6-14.4-32-32-32h-32c-17.6 0-32 14.4-32 32v32c0 17.6 14.4 32 32 32zM160 864v-64h384v64h-384zM147.197 544h729.398l45.803-320h-820.801l45.6 320zM96 32h832v96h-832v-96zM656 464c0 17.6-14.4 32-32 32h-32c-17.6 0-32-14.4-32-32v-32c0-17.6 14.4-32 32-32h32c17.6 0 32 14.4 32 32v32zM496 368h32c17.6 0 32-14.4 32-32v-32c0-17.6-14.4-32-32-32h-32c-17.6 0-32 14.4-32 32v32c0 17.6 14.4 32 32 32z" />
<glyph unicode="&#xe91e;" glyph-name="Question" d="M0 448c0 282.668 229.25 512 512 512 282.752 0 512-229.332 512-512 0-282.833-229.248-512-512-512-282.75 0-512 229.167-512 512zM99.097 448c0-228.271 184.708-412.902 412.903-412.902 228.271 0 412.902 184.713 412.902 412.902s-184.794 412.903-412.902 412.903c-228.186 0-412.903-184.785-412.903-412.903zM733.402 561.963c0-86.093-57.83-119.467-101.559-144.704-26.581-15.339-47.953-27.674-47.953-47.014v-13.082c0-13.683-11.093-24.772-24.772-24.772h-94.242c-13.679 0-24.772 11.089-24.772 24.772v17.877c0 72.030 53.299 101.858 95.168 125.286l3.059 1.715c36.254 20.322 58.475 34.147 58.475 61.065 0 35.604-45.419 59.237-82.133 59.237-47.876 0-69.973-22.662-101.042-61.872-8.375-10.57-23.659-12.533-34.407-4.385l-57.443 43.557c-10.543 7.994-12.905 22.846-5.459 33.782 48.779 71.626 110.906 111.866 207.64 111.866 101.308 0 209.442-79.079 209.442-183.329zM512 130.065c47.812 0 86.711 38.895 86.711 86.707s-38.899 86.711-86.711 86.711c-47.812 0-86.708-38.899-86.708-86.711s38.896-86.707 86.708-86.707z" />
<glyph unicode="&#xe91f;" glyph-name="Redio-Selected" d="M512 960c-282.771 0-512-229.229-512-512 0-282.769 229.229-512 512-512 282.769 0 512 229.231 512 512 0 282.771-229.231 512-512 512zM512 860.903c228.194 0 412.902-184.673 412.902-412.903 0-228.194-184.67-412.902-412.902-412.902-228.195 0-412.903 184.67-412.903 412.902 0 228.195 184.673 412.903 412.903 412.903zM346.84 448c0 91.215 73.945 165.16 165.16 165.16 91.217 0 165.163-73.945 165.163-165.16 0-91.217-73.946-165.163-165.163-165.163-91.215 0-165.16 73.946-165.16 165.163z" />
<glyph unicode="&#xe920;" glyph-name="Redio-Unselected" d="M0 448c0 282.839 229.161 512 512 512 282.837 0 512-229.161 512-512 0-282.837-229.163-512-512-512-282.839 0-512 229.163-512 512zM99.097 448c0-228.13 184.774-412.902 412.903-412.902s412.902 184.772 412.902 412.902c0 228.128-184.772 412.903-412.902 412.903-228.128 0-412.903-184.774-412.903-412.903z" />
<glyph unicode="&#xe921;" glyph-name="Sales" d="M188.628 524.352c0 7.189-1.246 14.045-2.998 20.681l170.947 170.947c6.636-1.751 13.49-2.998 20.682-2.998 10.358 0 20.16 2.122 29.271 5.676l160.572-128.455-0.038-0.262c-0.576-3.837-1.156-7.694-1.156-11.696 0-44.649 36.194-80.842 80.841-80.842 44.651 0 80.845 36.193 80.845 80.842 0 3.796-0.538 7.447-1.071 11.088-0.043 0.285-0.085 0.569-0.128 0.853l160.576 128.455c9.075-3.537 18.88-5.659 29.235-5.659 44.651 0 80.845 36.194 80.845 80.842s-36.194 80.842-80.845 80.842c-44.646 0-80.841-36.194-80.841-80.842 0-3.797 0.533-7.449 1.071-11.090 0.043-0.283 0.081-0.567 0.124-0.851l-160.572-128.454c-9.097 3.554-18.914 5.676-29.274 5.676-10.355 0-20.16-2.122-29.269-5.676l-160.542 128.438 0.043 0.262c0.576 3.838 1.156 7.695 1.156 11.696 0 44.649-36.195 80.842-80.843 80.842s-80.842-36.194-80.842-80.842c0-7.191 1.246-14.046 2.998-20.682l-170.947-170.947c-6.636 1.751-13.49 2.998-20.682 2.998-44.649 0-80.842-36.194-80.842-80.841 0-44.651 36.194-80.845 80.842-80.845s80.842 36.194 80.842 80.845zM323.367 551.299h107.788c29.76 0 53.897-24.135 53.897-53.895v-431.159c0-29.76-24.137-53.892-53.897-53.892h-107.788c-29.76 0-53.894 24.132-53.894 53.892v431.159c0 29.76 24.134 53.895 53.894 53.895zM862.319 551.299h107.789c29.76 0 53.897-24.135 53.897-53.895v-431.159c0-29.76-24.137-53.892-53.897-53.892h-107.789c-29.76 0-53.897 24.132-53.897 53.892v431.159c0 29.76 24.137 53.895 53.897 53.895zM700.629 335.718h-107.789c-29.76 0-53.897-24.132-53.897-53.892v-215.582c0-29.76 24.137-53.892 53.897-53.892h107.789c29.76 0 53.892 24.132 53.892 53.892v215.582c0 29.76-24.132 53.892-53.892 53.892zM673.685 93.193h-53.892v161.685h53.892v-161.685zM943.159 93.193h-53.897v377.263h53.897v-377.263zM404.207 93.193h-53.895v377.263h53.895v-377.263zM53.895 281.826h107.789c29.76 0 53.895-24.137 53.895-53.897v-161.685c0-29.76-24.135-53.892-53.895-53.892h-107.789c-29.76 0-53.895 24.132-53.895 53.892v161.685c0 29.76 24.135 53.897 53.895 53.897zM134.735 93.193h-53.895v107.789h53.895v-107.789z" />
<glyph unicode="&#xe922;" glyph-name="SBT" d="M440.887 917.333c7.825 0 14.225-6.4 14.225-14.222v-42.667h-113.779v42.667c0 7.822 6.4 14.222 14.222 14.222h85.332zM28.444 803.555h682.668c15.642 0 28.442-12.8 28.442-28.444v-324.799c0-15.113-6.042-29.513-16.708-40.179l-40.179-40.179v-277.508c0-47.113-38.221-85.333-85.333-85.333h-455.111c-47.111 0-85.333 38.221-85.333 85.333v277.508l-40.178 40.358c-10.667 10.667-16.711 25.067-16.711 40.175v324.624c0 15.644 12.8 28.444 28.444 28.444zM597.333 405.333l56.887 56.887v256.001h-568.887v-256.001l56.889-56.887v-312.887h455.111v312.887zM327.111 263.113h-113.778c-7.822 0-14.222-6.4-14.222-14.225v-85.333c0-7.821 6.4-14.221 14.222-14.221h113.778c7.822 0 14.222 6.4 14.222 14.221v85.333c0 7.825-6.4 14.225-14.222 14.225zM412.445 263.113h113.776c7.825 0 14.225-6.4 14.225-14.225v-85.333c0-7.821-6.4-14.221-14.225-14.221h-113.776c-7.823 0-14.223 6.4-14.223 14.221v85.333c0 7.825 6.4 14.225 14.223 14.225zM327.111 433.779h-113.778c-7.822 0-14.222-6.4-14.222-14.225v-85.333c0-7.821 6.4-14.221 14.222-14.221h113.778c7.822 0 14.222 6.4 14.222 14.221v85.333c0 7.825-6.4 14.225-14.222 14.225zM412.445 433.779h113.776c7.825 0 14.225-6.4 14.225-14.225v-85.333c0-7.821-6.4-14.221-14.225-14.221h-113.776c-7.823 0-14.223 6.4-14.223 14.221v85.333c0 7.825 6.4 14.225 14.223 14.225zM199.111 519.113h341.335c15.642 0 28.442 12.8 28.442 28.443v56.889c0 15.644-12.8 28.444-28.442 28.444h-341.335c-15.645 0-28.445-12.8-28.445-28.444v-56.889c0-15.643 12.8-28.443 28.445-28.443zM568.887 903.111c0 7.822-6.4 14.222-14.221 14.222h-28.446c-7.821 0-14.221-6.4-14.221-14.222v-42.667h56.887v42.667zM924.446 917.333h85.333c7.821 0 14.221-6.4 14.221-14.222v-483.557c0-7.821-6.4-14.221-14.221-14.221h-85.333c-7.825 0-14.225 6.4-14.225 14.221v483.557c0 7.822 6.4 14.222 14.225 14.222zM725.333 917.333h-85.333c-7.821 0-14.221-6.4-14.221-14.222v-42.667h113.775v42.667c0 7.822-6.4 14.222-14.221 14.222zM810.667 917.333h28.446c7.821 0 14.221-6.4 14.221-14.222v-483.557c0-7.821-6.4-14.221-14.221-14.221h-28.446c-7.821 0-14.221 6.4-14.221 14.221v483.557c0 7.822 6.4 14.222 14.221 14.222z" />
<glyph unicode="&#xe923;" glyph-name="Search" d="M774.161 265.033l242.79-242.786c9.399-9.399 9.399-24.602 0-34.001l-45.197-45.197c-9.399-9.399-24.602-9.399-34.001 0l-242.786 242.79c-4.403 4.599-7.002 10.598-7.002 16.998v26.398c-72.994-62.997-167.991-101.193-271.986-101.193-229.789 0-415.98 186.189-415.98 415.978s186.191 415.98 415.98 415.98c229.789 0 415.978-186.191 415.978-415.98 0-103.995-38.195-198.992-101.193-271.986h26.398c6.4 0 12.399-2.402 16.998-7.002zM95.993 544.021c0-176.793 143.193-319.983 319.984-319.983s319.984 143.189 319.984 319.983c0 176.791-143.194 319.984-319.984 319.984s-319.984-143.193-319.984-319.984z" />
<glyph unicode="&#xe924;" glyph-name="Settings" d="M384 837.12c0-67.84 55.040-122.88 122.88-122.88s122.88 55.040 122.88 122.88c0 67.84-55.040 122.88-122.88 122.88s-122.88-55.040-122.88-122.88zM506.88 570.882c67.84 0 122.88-55.042 122.88-122.882s-55.040-122.88-122.88-122.88c-67.84 0-122.88 55.040-122.88 122.88s55.040 122.882 122.88 122.882zM506.88-64.004c-67.84 0-122.88 55.040-122.88 122.88s55.040 122.88 122.88 122.88c67.84 0 122.88-55.040 122.88-122.88s-55.040-122.88-122.88-122.88z" />
<glyph unicode="&#xe925;" glyph-name="Sort" d="M305.558 190.635h-90.838v693.667c0 18.243-14.789 33.032-33.032 33.032h-33.032c-18.243 0-33.032-14.789-33.032-33.032v-693.667h-90.837c-9.894 0.004-18.842-5.879-22.761-14.963s-2.056-19.631 4.738-26.825l140.385-148.642c4.68-4.949 11.191-7.753 18.002-7.753s13.323 2.803 18.002 7.753l140.385 148.642c6.789 7.189 8.655 17.724 4.746 26.807-3.908 9.079-12.841 14.967-22.728 14.98zM594.59 207.151h-132.126c-18.244 0-33.033-14.793-33.033-33.033v-33.033c0-18.244 14.788-33.033 33.033-33.033h132.126c18.244 0 33.033 14.788 33.033 33.033v33.033c0 18.24-14.788 33.033-33.033 33.033zM462.464 603.531h396.382c18.24 0 33.028-14.789 33.028-33.032v-33.032c0-18.244-14.788-33.032-33.028-33.032h-396.382c-18.244 0-33.033 14.788-33.033 33.032v33.032c0 18.243 14.788 33.032 33.033 33.032zM990.972 801.722h-528.508c-18.244 0-33.033-14.789-33.033-33.032v-33.032c0-18.243 14.788-33.032 33.033-33.032h528.508c18.244 0 33.033 14.789 33.033 33.032v33.032c0 18.243-14.788 33.032-33.033 33.032zM462.464 405.342h264.252c18.244 0 33.033-14.793 33.033-33.033v-33.033c0-18.244-14.788-33.033-33.033-33.033h-264.252c-18.244 0-33.033 14.788-33.033 33.033v33.033c0 18.24 14.788 33.033 33.033 33.033z" />
<glyph unicode="&#xe926;" glyph-name="file-invoice-dollar-regular" horiz-adv-x="796" d="M586.103 931.8l167.777-167.76c18-18 28.342-42.6 28.342-67.98v-664.083c0-52.975-43.139-95.977-96.142-95.977h-575.878c-52.98 0-95.98 43.002-95.98 95.977v831.843c0 52.98 43 95.98 95.98 96.18h408.12c25.38 0 49.78-10.2 67.781-28.2zM678.303 703.861l-152.179 152.16v-152.16h152.179zM686.222 31.977h-576.020v831.842h319.94v-207.96c0-26.6 21.4-47.98 48-47.98h208.080v-575.902zM414.221 544.001c8.84 0 16-7.16 16-16v-48.58c22.58-1.16 44.54-9.040 62.74-22.7 7.799-5.86 8.2-17.54 1.139-24.28l-23.5-22.42c-5.54-5.28-13.78-5.52-20.26-1.46-7.72 4.86-16.521 7.44-25.64 7.44h-56.22c-13 0-23.6-11.84-23.6-26.381 0-11.901 7.22-22.357 17.54-25.458l90-26.999c37.2-11.162 63.16-46.842 63.16-86.784 0-49.061-38.1-88.878-85.34-90.14v-48.236c0-8.841-7.159-16.003-15.999-16.003h-32.001c-8.84 0-16 7.162-16 16.003v48.577c-22.58 1.161-44.539 9.040-62.74 22.699-7.8 5.86-8.2 17.545-1.14 24.28l23.5 22.42c5.54 5.279 13.78 5.524 20.26 1.462 7.72-4.858 16.52-7.441 25.64-7.441h56.22c13 0 23.6 11.839 23.6 26.379 0 11.901-7.22 22.363-17.54 25.463l-90 26.999c-37.2 11.162-63.16 46.837-63.16 86.778 0 49.040 38.1 88.88 85.34 90.14v48.24c0 8.84 7.16 16 16 16h32zM190.22 735.999h160c8.84 0 16 7.16 16 16v32c0 8.84-7.16 16-16 16h-160c-8.84 0-16-7.16-16-16v-32c0-8.84 7.16-16 16-16zM366.22 656v-32c0-8.84-7.16-16-16-16h-160c-8.84 0-16 7.16-16 16v32c0 8.84 7.16 16 16 16h160c8.84 0 16-7.16 16-16z" />
<glyph unicode="&#xe927;" glyph-name="Status" d="M86.126 746.667h851.747c76.587 0 114.88-92.69 60.838-146.73l-425.873-425.874c-33.638-33.643-88.038-33.643-121.318 0l-426.234 425.874c-54.040 54.039-15.747 146.73 60.839 146.73z" />
<glyph unicode="&#xe928;" glyph-name="Summary" d="M699.878 931.8l167.782-167.76c18.001-18 28.339-42.6 28.339-67.98v-664.081c0-52.979-43.14-95.979-96.141-95.979h-575.879c-52.98 0-95.98 42.999-95.98 95.979v831.841c0 52.98 43 95.98 95.98 96.18h408.118c25.382 0 49.783-10.2 67.78-28.2zM792.081 703.861l-152.179 152.16v-152.16h152.179zM800 31.979h-576.020v831.84h319.939v-207.96c0-26.6 21.402-47.98 48-47.98h208.081v-575.901zM528 544.001c8.841 0 16-7.16 16-16.001v-48.58c22.579-1.161 44.54-9.037 62.737-22.699 7.799-5.858 8.201-17.54 1.143-24.282l-23.501-22.417c-5.542-5.282-13.781-5.521-20.262-1.459-7.718 4.86-16.521 7.437-25.638 7.437h-56.222c-13.001 0-23.599-11.84-23.599-26.381 0-11.9 7.219-22.357 17.54-25.459l90.001-26.999c37.201-11.162 63.159-46.839 63.159-86.78 0-49.058-38.101-88.879-85.342-90.142v-48.239c0-8.841-7.159-16-16-16h-32c-8.841 0-16 7.159-16 16v48.58c-22.579 1.161-44.54 9.041-62.739 22.703-7.8 5.858-8.2 17.536-1.14 24.277l23.499 22.421c5.542 5.278 13.781 5.521 20.262 1.459 7.718-4.86 16.521-7.441 25.638-7.441h56.222c13.001 0 23.599 11.84 23.599 26.381 0 11.9-7.219 22.362-17.54 25.459l-90.001 26.999c-37.199 11.162-63.159 46.844-63.159 86.78 0 49.041 38.101 88.883 85.341 90.142v48.239c0 8.841 7.159 16.001 16 16.001h32zM303.998 735.999h159.998c8.841 0 16 7.16 16 16v32c0 8.84-7.159 16-16 16h-159.998c-8.84 0-16-7.16-16-16v-32c0-8.84 7.16-16 16-16zM479.996 656v-32c0-8.84-7.159-16-16-16h-159.998c-8.84 0-16 7.16-16 16v32c0 8.84 7.16 16 16 16h159.998c8.841 0 16-7.16 16-16z" />
<glyph unicode="&#xe929;" glyph-name="Toggle-Off" d="M341.333 206.225c-67.895 0-133.010 26.97-181.019 74.978-48.009 48.013-74.981 113.126-74.981 181.022s26.971 133.009 74.981 181.018c48.009 48.009 113.124 74.981 181.019 74.981s133.009-26.971 181.018-74.981c48.013-48.009 74.982-113.123 74.982-181.018s-26.97-133.009-74.982-181.022c-48.009-48.009-113.122-74.978-181.018-74.978zM341.333 120.892h341.333c188.446 0 341.333 152.887 341.333 341.333 0 188.443-152.887 341.332-341.333 341.332h-341.333c-188.445 0-341.333-152.889-341.333-341.332 0-188.446 152.889-341.333 341.333-341.333zM567.113 206.225c70.933 62.575 115.554 154.133 115.554 256 0 101.865-44.621 193.421-115.554 255.999h115.554c141.333 0 256-114.667 256-255.999s-114.667-256-256-256h-115.554z" />
<glyph unicode="&#xe92a;" glyph-name="Toggle-On" d="M341.333 803.557c-188.445 0-341.333-152.889-341.333-341.332 0-188.446 152.889-341.333 341.333-341.333h341.333c188.446 0 341.333 152.887 341.333 341.333 0 188.443-152.887 341.332-341.333 341.332h-341.333zM682.667 718.224c67.895 0 133.009-26.971 181.018-74.981 48.013-48.009 74.982-113.123 74.982-181.018s-26.97-133.009-74.982-181.022c-48.009-48.009-113.122-74.978-181.018-74.978s-133.009 26.97-181.018 74.978c-48.013 48.013-74.982 113.126-74.982 181.022s26.97 133.009 74.982 181.018c48.009 48.009 113.122 74.981 181.018 74.981z" />
<glyph unicode="&#xe92b;" glyph-name="User" d="M0 448c0 282.839 229.161 512 512 512 282.837 0 512-229.161 512-512 0-282.837-229.163-512-512-512-282.839 0-512 229.163-512 512zM512 761.806c-109.42 0-198.194-88.774-198.194-198.193 0-109.421 88.774-198.193 198.194-198.193s198.191 88.772 198.191 198.193c0 109.419-88.772 198.193-198.191 198.193zM512 464.516c-54.711 0-99.097 44.386-99.097 99.095s44.386 99.097 99.097 99.097c54.707 0 99.098-44.387 99.098-99.097s-44.39-99.095-99.098-99.095zM512.004 35.098c-102.607 0-196.337 37.781-268.594 99.925 30.761 47.484 83.406 79.689 143.69 81.545 42.941-13.21 83.82-19.819 124.904-19.819s81.958 6.4 124.902 19.819c60.284-2.061 112.93-34.061 143.689-81.545-72.256-62.144-165.986-99.925-268.591-99.925zM630.916 315.87c88.777 0 166.605-42.321 216.981-107.149 48.311 67.511 77.005 150.093 77.005 239.279 0 227.716-185.186 412.903-412.902 412.903s-412.903-185.187-412.903-412.903c0-89.186 28.697-171.767 77.007-239.279 50.58 64.828 128.413 107.149 216.98 107.149 7.637 0 16.822-2.607 28.53-5.931 20.575-5.837 48.94-13.888 90.386-13.888 41.604 0 69.939 8.060 90.475 13.901 11.665 3.315 20.813 5.918 28.442 5.918z" />
<glyph unicode="&#xe92c;" glyph-name="Warehouse" d="M51.2 354.133h537.6c28.322 0 51.2 22.882 51.2 51.2v332.8c0 28.32-22.878 51.2-51.2 51.2h-537.6c-28.32 0-51.2-22.88-51.2-51.2v-332.8c0-28.318 22.88-51.2 51.2-51.2zM76.799 712.533h486.401v-281.6h-486.401v281.6zM900.48 605.653l93.598-93.602c19.204-19.2 29.922-45.12 29.922-72.32v-188.16c0-14.080-11.52-25.6-25.6-25.6h-28.002c1.6-8.32 2.56-16.798 2.56-25.6 0-81.118-75.516-144.64-159.996-124.16-41.122 9.92-75.52 41.6-88.96 81.762-8.004 23.68-8.802 46.72-4.48 67.84h-261.12c4.16-21.12 3.358-44.16-4.48-67.84-13.282-39.36-46.722-70.882-87.042-81.28-55.84-14.4-107.040 8-136.48 47.518-26.56-35.52-70.72-57.28-119.84-50.718-64.64 8.64-110.56 68.318-110.56 133.598v44.48c0 28.322 22.88 51.2 51.2 51.2h640v281.602c0 28.32 22.878 51.2 51.2 51.2h85.598c27.204 0 53.282-10.72 72.482-29.92zM127.999 149.333c-28.16 0-51.2 23.040-51.2 51.2s23.040 51.2 51.2 51.2c28.16 0 51.2-23.040 51.2-51.2s-23.040-51.2-51.2-51.2zM281.597 200.533c0-28.16 23.040-51.2 51.2-51.2s51.2 23.040 51.2 51.2c0 28.16-23.040 51.2-51.2 51.2s-51.2-23.040-51.2-51.2zM768 558.933h59.998c6.882 0 13.282-2.72 18.082-7.52l69.282-69.28h-147.362v76.8zM793.596 200.533c0-28.16 23.040-51.2 51.2-51.2s51.2 23.040 51.2 51.2c0 28.16-23.040 51.2-51.2 51.2s-51.2-23.040-51.2-51.2zM947.2 302.933h-26.24c-21.278 15.838-47.518 25.6-76.16 25.6s-54.72-9.762-76.16-25.6h-0.64v128h179.2v-128zM166.397 661.333h51.2c7.040 0 12.8-5.76 12.8-12.8v-153.6c0-7.040-5.76-12.8-12.8-12.8h-51.2c-7.040 0-12.8 5.76-12.8 12.8v153.6c0 7.040 5.76 12.8 12.8 12.8zM473.596 661.333h-51.199c-7.040 0-12.8-5.76-12.8-12.8v-153.6c0-7.040 5.76-12.8 12.8-12.8h51.199c7.040 0 12.8 5.76 12.8 12.8v153.6c0 7.040-5.76 12.8-12.8 12.8zM294.397 661.333h51.2c7.040 0 12.8-5.76 12.8-12.8v-153.6c0-7.040-5.76-12.8-12.8-12.8h-51.2c-7.040 0-12.8 5.76-12.8 12.8v153.6c0 7.040 5.76 12.8 12.8 12.8z" />
<glyph unicode="&#xe92d;" glyph-name="Warning" d="M585.916 874.693l426.56-739.606c32.815-56.879-8.375-127.974-73.916-127.974h-853.13c-65.664 0-106.665 71.206-73.915 127.974l426.569 739.606c32.832 56.905 115.059 56.802 147.831 0zM453.931 354.304l-11.712 199.109c-0.721 12.254 9.020 22.587 21.295 22.587h96.973c12.271 0 22.016-10.333 21.295-22.587l-11.712-199.109c-0.666-11.277-10.001-20.083-21.295-20.083h-73.549c-11.294 0-20.634 8.806-21.295 20.083zM512 160c41.237 0 74.667 33.429 74.667 74.667s-33.429 74.667-74.667 74.667c-41.237 0-74.667-33.429-74.667-74.667s33.429-74.667 74.667-74.667zM502.758 815.987l-408.198-707.545c-4.101-7.113 1.031-15.996 9.239-15.996h816.396c8.213 0 13.342 8.887 9.242 15.996l-408.201 707.545c-4.105 7.115-14.374 7.115-18.479 0z" />
<glyph unicode="&#xe92e;" glyph-name="Add" d="M950.857 374.857h-365.713v-365.713c0-40.23-32.913-73.143-73.143-73.143s-73.143 32.913-73.143 73.143v365.713h-365.713c-40.229 0-73.143 32.913-73.143 73.143s32.914 73.143 73.143 73.143h365.713v365.713c0 40.229 32.913 73.143 73.143 73.143s73.143-32.914 73.143-73.143v-365.713h365.713c40.23 0 73.143-32.913 73.143-73.143s-32.913-73.143-73.143-73.143z" />
<glyph unicode="&#xe92f;" glyph-name="Back" d="M348.233 139.708l44.879 44.881c10.869 10.871 10.691 28.548-0.396 39.194l-184.581 177.267h788.425c15.151 0 27.439 12.284 27.439 27.439v64.030c0 15.155-12.288 27.439-27.439 27.439h-788.425l184.579 177.265c11.088 10.647 11.267 28.326 0.396 39.194l-44.88 44.88c-10.716 10.716-28.090 10.716-38.808 0l-301.386-301.391c-10.716-10.714-10.716-28.092 0-38.81l301.39-301.389c10.716-10.714 28.090-10.714 38.806 0z" />
<glyph unicode="&#xe930;" glyph-name="Check" d="M892.971 786.934c24.431 24.741 64.418 24.588 88.661-0.338 23.543-24.208 23.415-62.795-0.286-86.846l-626.53-635.75-312.288 317.918c-23.643 24.068-23.739 62.613-0.216 86.801 24.267 24.951 64.299 25.084 88.732 0.294l223.771-227.029 538.155 544.95z" />
<glyph unicode="&#xe931;" glyph-name="Chevron-Down" d="M24.994 721.673c-30.761-30.761-33.128-79.165-7.099-112.64l7.099-8.039 426.667-426.666c30.763-30.763 79.164-33.126 112.64-7.1l8.038 7.1 426.667 426.666c33.327 33.324 33.327 87.354 0 120.679-30.763 30.761-79.164 33.128-112.64 7.099l-8.038-7.099-366.327-366.26-366.327 366.26c-30.761 30.761-79.165 33.128-112.64 7.099l-8.039-7.099z" />
<glyph unicode="&#xe932;" glyph-name="Chevron-Left" d="M785.673-39.006c-30.763-30.763-79.164-33.126-112.64-7.1l-8.038 7.1-426.667 426.667c-30.761 30.763-33.128 79.164-7.099 112.64l7.099 8.038 426.667 426.667c33.323 33.325 87.356 33.325 120.678 0 30.763-30.762 33.126-79.165 7.1-112.641l-7.1-8.039-366.259-366.327 366.259-366.327c30.763-30.763 33.126-79.164 7.1-112.64l-7.1-8.038z" />
<glyph unicode="&#xe933;" glyph-name="DG" d="M350.154 331.694h-31.868v232.151h22.881c64.259 0 101.069-18.071 101.069-112.584 0-74.946-13.031-119.567-92.082-119.567v0zM705.787 453.044v-60.222h40.484v-52.204c-11.238-5.356-29.251-9.37-44.974-9.37-58.419 0-86.241 41.492-86.241 120.904 0 71.759 26.061 112.359 65.116 112.359 30.561 0 45.389-19.408 53.064-55.77l109.496 18.294c-15.652 76.74-70.922 117.565-156.268 117.565-74.26 0-128.527-29.399-158.1-83.183-34.061 59.072-102.343 75.745-199.739 75.745h-154.544v-73.318h38.608v-305.326h127.132c83.027 0 151.076 19.144 186.617 75.653 25.748-50.381 73.692-82.79 149.693-82.79 37.745 0 75.080 10.931 99.267 26.327l12.59-19.19h61.932v194.525h-144.133z" />
<glyph unicode="&#xe934;" glyph-name="Chevron-Down1" d="M24.994 721.673c-30.761-30.761-33.128-79.165-7.099-112.64l7.099-8.039 426.667-426.666c30.763-30.763 79.164-33.126 112.64-7.1l8.038 7.1 426.667 426.666c33.327 33.324 33.327 87.354 0 120.679-30.763 30.761-79.164 33.128-112.64 7.099l-8.038-7.099-366.327-366.26-366.327 366.26c-30.761 30.761-79.165 33.128-112.64 7.099l-8.039-7.099z" />
</font>
</defs>
</svg>
